<svg xmlns="http://www.w3.org/2000/svg" width="92" height="87.031" viewBox="0 0 92 87.031">
  <metadata><?xpacket begin="﻿" id="W5M0MpCehiHzreSzNTczkc9d"?>
<x:xmpmeta xmlns:x="adobe:ns:meta/" x:xmptk="Adobe XMP Core 5.6-c138 79.159824, 2016/09/14-01:09:01        ">
   <rdf:RDF xmlns:rdf="http://www.w3.org/1999/02/22-rdf-syntax-ns#">
      <rdf:Description rdf:about=""/>
   </rdf:RDF>
</x:xmpmeta>
                                                                                                    
                                                                                                    
                                                                                                    
                                                                                                    
                                                                                                    
                                                                                                    
                                                                                                    
                                                                                                    
                                                                                                    
                                                                                                    
                                                                                                    
                                                                                                    
                                                                                                    
                                                                                                    
                                                                                                    
                                                                                                    
                                                                                                    
                                                                                                    
                                                                                                    
                                                                                                    
                           
<?xpacket end="w"?></metadata>
<defs>
    <style>
      .cls-1 {
        fill: #fff;
        fill-rule: evenodd;
      }
    </style>
  </defs>
  <path id="logo" class="cls-1" d="M1194.22,575.043l-42.42,23.9a5.71,5.71,0,0,1-5.61,0l-42.41-23.9a1.535,1.535,0,0,1,.03-2.685l43.07-22.871a4.5,4.5,0,0,1,4.23,0l43.08,22.872A1.535,1.535,0,0,1,1194.22,575.043Zm-32.56-2.837-15.22-8.866a1.673,1.673,0,0,0-2.51,1.464v17.732a1.673,1.673,0,0,0,2.51,1.464l15.22-8.866A1.7,1.7,0,0,0,1161.66,572.206Zm-49.3,14.83,3.19,1.789a1.827,1.827,0,0,1,.93,1.6v18.386l2.3-3.646a0.3,0.3,0,0,1,.52.023l4.03,8.894,0.01-19.86a0.613,0.613,0,0,1,.91-0.532l21.79,12.323a6.022,6.022,0,0,0,5.92,0l33.68-18.979a0.907,0.907,0,0,1,1.35.8v4.744a1.231,1.231,0,0,1-.62,1.069L1149.94,614a1.832,1.832,0,0,0-.94,1.6v3.351a0.456,0.456,0,0,0,.68.4l36.63-20.931a0.454,0.454,0,0,1,.68.4v3.018a1.066,1.066,0,0,1-.53.925l-36.55,21.352a1.843,1.843,0,0,0-.91,1.587v3.143a0.451,0.451,0,0,0,.68.394l36.4-21.618a0.6,0.6,0,0,1,.91.526v4.727a2.442,2.442,0,0,1-1.19,2.1l-33.7,20.166a6.009,6.009,0,0,1-6.19-.008l-32.69-19.665a4.592,4.592,0,0,1-2.21-3.935v-23.7A0.908,0.908,0,0,1,1112.36,587.036Z" transform="translate(-1103 -548.969)"/>
</svg>
