<svg xmlns="http://www.w3.org/2000/svg" width="30" height="30" viewBox="0 0 30 30">
  <metadata><?xpacket begin="﻿" id="W5M0MpCehiHzreSzNTczkc9d"?>
<x:xmpmeta xmlns:x="adobe:ns:meta/" x:xmptk="Adobe XMP Core 5.6-c138 79.159824, 2016/09/14-01:09:01        ">
   <rdf:RDF xmlns:rdf="http://www.w3.org/1999/02/22-rdf-syntax-ns#">
      <rdf:Description rdf:about=""/>
   </rdf:RDF>
</x:xmpmeta>
                                                                                                    
                                                                                                    
                                                                                                    
                                                                                                    
                                                                                                    
                                                                                                    
                                                                                                    
                                                                                                    
                                                                                                    
                                                                                                    
                                                                                                    
                                                                                                    
                                                                                                    
                                                                                                    
                                                                                                    
                                                                                                    
                                                                                                    
                                                                                                    
                                                                                                    
                                                                                                    
                           
<?xpacket end="w"?></metadata>
<defs>
    <style>
      .cls-1 {
        fill: #fa8771;
        fill-rule: evenodd;
      }
    </style>
  </defs>
  <path id="密码" class="cls-1" d="M836.974,798h-12.95a1.989,1.989,0,0,1-2.025-1.95v-8.277a1.99,1.99,0,0,1,2.025-1.951h0.5v-1.935a5.971,5.971,0,0,1,11.941,0v1.935h0.5A1.989,1.989,0,0,1,839,787.772v8.277a1.989,1.989,0,0,1-2.024,1.95h0Zm-7.327-6.145v2.173a0.853,0.853,0,0,0,1.7,0v-2.173a1.636,1.636,0,0,0,.853-1.424,1.707,1.707,0,0,0-3.412,0,1.632,1.632,0,0,0,.854,1.424h0Zm5.116-8.026a4.267,4.267,0,0,0-8.528,0v1.993h8.528v-1.993Zm0,0" transform="translate(-815.5 -773)"/>
</svg>
