<svg xmlns="http://www.w3.org/2000/svg" width="30" height="30" viewBox="0 0 30 30">
  <metadata><?xpacket begin="﻿" id="W5M0MpCehiHzreSzNTczkc9d"?>
<x:xmpmeta xmlns:x="adobe:ns:meta/" x:xmptk="Adobe XMP Core 5.6-c138 79.159824, 2016/09/14-01:09:01        ">
   <rdf:RDF xmlns:rdf="http://www.w3.org/1999/02/22-rdf-syntax-ns#">
      <rdf:Description rdf:about=""/>
   </rdf:RDF>
</x:xmpmeta>
                                                                                                    
                                                                                                    
                                                                                                    
                                                                                                    
                                                                                                    
                                                                                                    
                                                                                                    
                                                                                                    
                                                                                                    
                                                                                                    
                                                                                                    
                                                                                                    
                                                                                                    
                                                                                                    
                                                                                                    
                                                                                                    
                                                                                                    
                                                                                                    
                                                                                                    
                                                                                                    
                           
<?xpacket end="w"?></metadata>
<defs>
    <style>
      .cls-1 {
        fill: #fff;
        fill-rule: evenodd;
      }
    </style>
  </defs>
  <path id="错误提示" class="cls-1" d="M820,903a10,10,0,1,0,10,10,10,10,0,0,0-10-10h0Zm0.063,11.794h-0.244a0.668,0.668,0,0,1-.665-0.618l-0.5-6.664a0.666,0.666,0,0,1,.665-0.716h1.259a0.666,0.666,0,0,1,.664.718l-0.516,6.664a0.665,0.665,0,0,1-.664.615h0Zm-0.089,4.4h-0.028a1.384,1.384,0,0,1-1.384-1.385v-0.028a1.384,1.384,0,0,1,1.384-1.386h0.028a1.385,1.385,0,0,1,1.385,1.386v0.028a1.386,1.386,0,0,1-1.385,1.385h0Zm0,0" transform="translate(-805 -898)"/>
</svg>
