<!-- Generated by IcoMoon.io -->
<svg version="1.1" xmlns="http://www.w3.org/2000/svg" width="32" height="32" viewBox="0 0 32 32">
<title>1</title>
<path fill="#3af" d="M19.902 29.045l11.429-11.429c0.413-0.414 0.669-0.985 0.669-1.616s-0.256-1.202-0.669-1.616l-11.429-11.429c-0.411-0.397-0.971-0.642-1.588-0.642-1.262 0-2.286 1.023-2.286 2.286 0 0.617 0.245 1.177 0.642 1.589l-0.001-0.001 7.527 7.527h-21.911c-1.262 0-2.286 1.023-2.286 2.286s1.023 2.286 2.286 2.286v0h21.911l-7.527 7.527c-0.397 0.411-0.642 0.971-0.642 1.588 0 1.262 1.023 2.286 2.286 2.286 0.617 0 1.177-0.245 1.589-0.642l-0.001 0.001z"></path>
</svg>
