<!-- Generated by IcoMoon.io -->
<svg version="1.1" xmlns="http://www.w3.org/2000/svg" width="32" height="32" viewBox="0 0 32 32">
<title>2</title>
<path fill="#fa8771" d="M26.356 32h-20.713c-0.017 0-0.038 0-0.058 0-1.735 0-3.146-1.389-3.181-3.116l-0-0.003v-13.239c0.035-1.731 1.446-3.121 3.182-3.121 0.020 0 0.040 0 0.060 0.001l-0.003-0h0.8v-3.095c0.070-5.221 4.318-9.427 9.549-9.427s9.48 4.206 9.549 9.42l0 0.007v3.095h0.8c0.022-0.001 0.048-0.001 0.074-0.001 1.735 0 3.146 1.389 3.181 3.117l0 0.003v13.239c-0.035 1.73-1.445 3.119-3.181 3.119-0.020 0-0.040-0-0.060-0.001l0.003 0zM14.636 22.171v3.476c0.061 0.703 0.646 1.25 1.36 1.25s1.299-0.547 1.359-1.245l0-0.005v-3.476c0.813-0.45 1.357-1.299 1.364-2.277v-0.001c-0.052-1.467-1.254-2.637-2.729-2.637s-2.677 1.17-2.729 2.632l-0 0.005c0.007 0.979 0.551 1.829 1.352 2.271l0.014 0.007zM22.819 9.334c-0.142-3.658-3.141-6.569-6.82-6.569s-6.678 2.911-6.82 6.556l-0 0.013v3.188h13.64v-3.188z"></path>
</svg>
