<!-- Generated by IcoMoon.io -->
<svg version="1.1" xmlns="http://www.w3.org/2000/svg" width="32" height="32" viewBox="0 0 32 32">
<title>appdianping</title>
<path d="M8 11.399c-1.104 0-2 0.928-2 2.075 0 1.144 0.896 2.073 2 2.073s2-0.929 2-2.073c0-1.147-0.896-2.075-2-2.075v0 0zM16 11.399c-1.104 0-2 0.928-2 2.075 0 1.144 0.896 2.073 2 2.073s2-0.929 2-2.073c0-1.147-0.896-2.075-2-2.075v0 0zM24 11.399c-1.104 0-2 0.928-2 2.075 0 1.144 0.896 2.073 2 2.073s2-0.929 2-2.073c0-1.147-0.896-2.075-2-2.075v0 0zM28 1.025h-24c-2.208 0-4 1.859-4 4.151v15.56c0 2.29 1.831 4.403 4.092 4.403h6.096c1.061 1.131 5.459 5.683 5.459 5.683 0.195 0.205 0.511 0.205 0.706 0 0 0 3.22-3.648 5.318-5.683h6.238c2.26 0 4.092-2.113 4.092-4.403v-15.56c0-2.292-1.792-4.151-4-4.151v0 0zM30 20.735c0 1.146-0.96 2.347-2.092 2.347h-6.133c-0.744 0-1.413 0.765-1.413 0.765l-4.306 4.469-4.307-4.469c0 0-0.82-0.765-1.522-0.765h-6.135c-1.131 0-2.092-1.201-2.092-2.347v-15.56c0-1.146 0.896-2.075 2-2.075h24c1.104 0 2 0.929 2 2.075v15.56z"></path>
</svg>
