<!-- Generated by IcoMoon.io -->
<svg version="1.1" xmlns="http://www.w3.org/2000/svg" width="32" height="32" viewBox="0 0 32 32">
<title>bianjichuqin</title>
<path d="M30 0h-28c-1.105 0-2 0.895-2 2v0 28c0 1.105 0.895 2 2 2v0h28c1.105 0 2-0.895 2-2v0-28c0-1.105-0.895-2-2-2v0zM5.472 27.184c-0.026 0.004-0.057 0.007-0.088 0.007-0.325 0-0.589-0.264-0.589-0.589 0-0.026 0.002-0.052 0.005-0.077v0.003l0.608-4.176 16.96-16.976c0.365-0.356 0.865-0.576 1.416-0.576s1.051 0.22 1.416 0.576v0l1.408 1.424c0.363 0.359 0.588 0.857 0.588 1.408s-0.225 1.049-0.588 1.408l-16.96 16.976zM27.824 27.2h-13.984c-0.552 0-1-0.448-1-1s0.448-1 1-1v0h14c0.549 0.005 0.992 0.451 0.992 1 0 0.552-0.448 1-1 1-0.003 0-0.006 0-0.008 0v0z"></path>
</svg>
