<!-- Generated by IcoMoon.io -->
<svg version="1.1" xmlns="http://www.w3.org/2000/svg" width="32" height="32" viewBox="0 0 32 32">
<title>bianji</title>
<path d="M9.974 17.712c-0.021 0.027-0.042 0.056-0.051 0.090l-1.61 6.052c-0.094 0.352 0.002 0.732 0.257 1 0.19 0.191 0.441 0.295 0.708 0.295 0.088 0 0.177-0.011 0.264-0.035l5.861-1.639c0.009 0 0.014 0.008 0.021 0.008 0.067 0 0.134-0.025 0.184-0.077l15.672-16.065c0.466-0.478 0.721-1.128 0.721-1.837 0-0.803-0.332-1.605-0.913-2.199l-1.48-1.52c-0.581-0.596-1.364-0.937-2.146-0.937-0.691 0-1.326 0.262-1.792 0.738l-15.67 16.069c-0.016 0.015-0.011 0.038-0.023 0.056v0 0zM29.746 5.768l-1.556 1.595-2.524-2.628 1.535-1.573c0.243-0.25 0.713-0.214 0.991 0.073l1.481 1.52c0.155 0.158 0.243 0.369 0.243 0.577-0.001 0.171-0.060 0.326-0.17 0.437v0 0zM12.761 17.964l11.309-11.594 2.525 2.63-11.288 11.572-2.546-2.608zM10.701 22.665l0.817-3.075 2.18 2.235-2.997 0.84zM30.414 12.134c-0.593 0-1.080 0.495-1.082 1.111v14.978c0 0.786-0.622 1.424-1.39 1.424h-24.39c-0.766 0-1.391-0.638-1.391-1.424v-24.446c0-0.786 0.625-1.425 1.391-1.425h15.917c0.597 0 1.081-0.497 1.081-1.109 0-0.61-0.484-1.108-1.081-1.108h-16.082c-1.868 0-3.388 1.557-3.388 3.473v24.783c0 1.916 1.52 3.473 3.388 3.473h24.718c1.869 0 3.388-1.556 3.388-3.473v-15.154c-0.002-0.609-0.487-1.104-1.081-1.104v0 0z"></path>
</svg>
