<!-- Generated by IcoMoon.io -->
<svg version="1.1" xmlns="http://www.w3.org/2000/svg" width="32" height="32" viewBox="0 0 32 32">
<title>classroom</title>
<path d="M22.283 12.028c-0.057-0.447-0.435-0.789-0.893-0.789s-0.836 0.342-0.892 0.785v0.004c-0.271 2.265-2.181 4.004-4.497 4.004s-4.226-1.739-4.495-3.982l-0.002-0.022c-0.027-0.444-0.393-0.793-0.841-0.793-0.018 0-0.036 0.001-0.054 0.002h0.002c-0.016-0.001-0.034-0.002-0.052-0.002-0.448 0-0.814 0.35-0.841 0.791v0.002c0.364 3.177 3.037 5.621 6.281 5.621s5.917-2.445 6.278-5.592l0.003-0.029zM16.002 0.004c-7.426 0-13.472 5.388-13.472 12.024 0.249 5.624 4.22 10.255 9.498 11.502l0.084 0.017-2.897 7.392c-0.030 0.078-0.047 0.169-0.047 0.263 0 0.365 0.256 0.67 0.597 0.746l0.005 0.001c0.085 0.030 0.183 0.049 0.285 0.051h0.001c0.008 0 0.018 0 0.027 0 0.369 0 0.686-0.219 0.83-0.534l0.002-0.006 3.217-8.201c0.029-0.077 0.046-0.166 0.046-0.259 0-0.147-0.042-0.285-0.115-0.401l0.002 0.003c-0.13-0.208-0.339-0.356-0.584-0.403l-0.006-0.001c-5.044-0.804-8.89-5.003-9.143-10.146l-0.001-0.025c0-5.742 5.237-10.424 11.67-10.424s11.67 4.682 11.67 10.424c-0.003 0.454-0.033 0.898-0.090 1.334l0.006-0.054c-0.773 4.397-4.119 7.838-8.4 8.744l-0.071 0.012c-0.236 0.060-0.43 0.205-0.554 0.4l-0.002 0.004c-0.065 0.106-0.103 0.233-0.103 0.37 0 0.097 0.019 0.19 0.054 0.274l-0.002-0.005 3.284 8.352c0.134 0.319 0.445 0.54 0.806 0.54 0.012 0 0.025 0 0.037-0.001h-0.002c0.109 0 0.213-0.019 0.31-0.053l-0.007 0.002c0.338-0.087 0.584-0.39 0.584-0.75 0-0.094-0.017-0.183-0.047-0.266l0.002 0.005-2.964-7.578c4.594-1.314 8.044-5.103 8.847-9.795l0.010-0.073c0.064-0.434 0.101-0.934 0.101-1.443 0-0.008 0-0.016 0-0.023v0.001c0-6.635-6.045-12.024-13.472-12.024v0z"></path>
</svg>
