<!-- Generated by IcoMoon.io -->
<svg version="1.1" xmlns="http://www.w3.org/2000/svg" width="32" height="32" viewBox="0 0 32 32">
<title>daishenhe</title>
<path fill="#040000" d="M10.452 7.661l0.59-0.479 0.774 0.057-0.296-0.682 0.296-0.682-0.774 0.057-0.59-0.479-0.182 0.717-0.661 0.386 0.661 0.386 0.182 0.718zM21.211 6.847l0.547 0.55 0.223-0.709 0.671-0.321-0.622-0.464-0.133-0.749-0.607 0.423-0.753-0.142 0.246 0.725-0.333 0.661 0.76 0.025zM15.181 5.984l0.732-0.207 0.688 0.358-0.003-0.744 0.541-0.51-0.734-0.253-0.354-0.673-0.45 0.588-0.76 0.094 0.455 0.616-0.116 0.731zM7.216 10.426l0.521 0.526 0.266-0.712 0.696-0.343-0.601-0.438-0.091-0.739-0.638 0.442-0.752-0.113 0.207 0.711-0.374 0.668 0.766-0.002zM21.704 24.935l-0.586 0.478-0.767-0.057 0.294 0.681-0.294 0.681 0.767-0.057 0.586 0.477 0.18-0.716 0.656-0.386-0.656-0.385-0.18-0.716zM17.019 26.241l-0.726 0.207-0.683-0.357 0.003 0.742-0.537 0.509 0.727 0.252 0.351 0.671 0.447-0.587 0.754-0.094-0.452-0.615 0.115-0.729zM11.361 25.402l-0.542-0.548-0.223 0.707-0.666 0.321 0.616 0.461 0.13 0.747 0.604-0.423 0.747 0.14-0.243-0.723 0.331-0.66-0.754-0.024z"></path>
<path fill="#040000" d="M16 0c-8.822 0-16 7.178-16 16s7.178 16 16 16c8.822 0 16-7.178 16-16s-7.178-16-16-16zM16 30.938c-8.237 0-14.938-6.701-14.938-14.938s6.701-14.938 14.938-14.938c8.237 0 14.938 6.701 14.938 14.938s-6.701 14.938-14.938 14.938z"></path>
<path fill="#040000" d="M16 2.583c-7.398 0-13.417 6.019-13.417 13.417s6.019 13.417 13.417 13.417 13.417-6.019 13.417-13.417c0-7.398-6.019-13.417-13.417-13.417zM16 28.81c-7.063 0-12.81-5.746-12.81-12.81s5.747-12.81 12.81-12.81 12.81 5.747 12.81 12.81c0 0.004 0 0.009 0 0.014 0 2.644-0.806 5.1-2.185 7.136l0.029-0.045-0.252-0.684 0.322-0.691-0.757 0.056-0.552-0.487-0.213 0.727-0.664 0.39 0.626 0.394 0.142 0.728 0.6-0.484 0.744 0.059c-2.301 3.433-6.215 5.697-10.648 5.697z"></path>
<path fill="#040000" d="M21.274 9.565c-1.424-1.173-3.266-1.884-5.274-1.885v0c-3.989 0-7.426 2.84-8.173 6.753l0.522 0.1c0.698-3.663 3.916-6.322 7.651-6.322 1.797 0 3.551 0.627 4.938 1.765l0.337-0.411zM16 23.79c-1.88-0.001-3.605-0.667-4.951-1.775l0.013 0.011-0.337 0.411c1.424 1.173 3.266 1.884 5.274 1.885v0c3.989 0 7.426-2.84 8.173-6.753l-0.522-0.1c-0.699 3.663-3.916 6.322-7.651 6.322z"></path>
<path fill="#000" d="M7.418 16.21l-0.082 1.177c-0.035 0.323-0.187 0.532-0.457 0.626l-0.461 0.161-0.4-0.713 0.118-0.041c0.168-0.063 0.261-0.156 0.281-0.281l0.062-0.602 0.94-0.328zM7.785 18.821c-0.015 0.115-0.042 0.212-0.081 0.293l0.31-0.108 0.973 2.791-0.94 0.328-0.91-2.611-0.248 0.086-0.4-0.713 0.096-0.033c0.168-0.063 0.261-0.156 0.281-0.281l0.025-0.488 0.94-0.328-0.046 1.064zM8.916 15.638l0.94-0.328 0.12 0.343 1.283-0.447 0.265 0.76-1.283 0.447 0.182 0.523 1.396-0.486 0.265 0.76-3.826 1.334-0.265-0.76 1.491-0.52-0.182-0.523-1.356 0.473-0.265-0.76 1.356-0.473-0.12-0.343zM10.786 17.889l0.94-0.328 0.112 0.321 0.45-0.157 0.265 0.76-0.45 0.157 0.449 1.289c0.042 0.133 0.036 0.273-0.017 0.422-0.062 0.16-0.177 0.27-0.346 0.329l-0.658 0.229-0.362-0.675 0.186-0.065c0.079-0.027 0.125-0.065 0.138-0.111 0.017-0.048 0.015-0.102-0.006-0.162l-0.324-0.928-2.369 0.826-0.265-0.76 2.369-0.826-0.112-0.321zM10.457 20.149c0.095 0.055 0.195 0.065 0.3 0.028l0.146-0.051 0.265 0.76-0.405 0.141c-0.36 0.125-0.679 0.085-0.957-0.121l-0.773-0.841 1.007-0.351 0.417 0.435zM13.551 15.587l-0.94 0.328-0.367-1.052 2.251-0.784-0.12-0.343 0.94-0.328 0.12 0.343 2.228-0.777 0.367 1.052-0.94 0.328-0.102-0.293-3.539 1.233 0.102 0.293zM18.623 18.010l-1.519 0.529 0.133 0.383-0.94 0.328-0.133-0.383-2.093 0.73-1.222-3.506 2.093-0.729-0.104-0.298 0.94-0.328 0.104 0.298 2.071-0.722 1.030 2.954c0.124 0.369 0.005 0.617-0.359 0.744zM15.207 16.121l-1.154 0.402 0.206 0.591 1.154-0.402-0.206-0.591zM15.678 17.471l-1.154 0.402 0.222 0.636 1.154-0.402-0.222-0.636zM16.353 16.384l1.131-0.394-0.206-0.591-1.131 0.394 0.206 0.591zM16.839 17.78l0.99-0.345c0.094-0.033 0.124-0.096 0.092-0.19l-0.173-0.495-1.131 0.394 0.222 0.636zM20.513 12.959l1.498 4.299-0.872 0.304-1.498-4.299-0.737 0.257-0.265-0.76 0.737-0.257-0.159-0.456 0.872-0.304 0.159 0.456 0.731-0.255 0.265 0.76-0.731 0.255zM19.594 13.582l1.112 3.19c0.032 0.103 0.027 0.211-0.012 0.326-0.052 0.128-0.142 0.214-0.27 0.258l-0.163 0.057-0.389-0.717 0.045-0.016c0.060-0.021 0.095-0.052 0.106-0.094 0.016-0.039 0.016-0.081 0-0.126l-0.941-2.701 0.512-0.178zM21.282 12.994l1.224 3.511-0.512 0.178-1.224-3.511 0.512-0.178zM22.727 12.976l0.445-0.155 0.103-0.32 1.030-0.359-0.692 2.506c-0.086 0.236-0.258 0.399-0.517 0.489l-0.619 0.216-0.4-0.713 0.394-0.137c0.116-0.040 0.189-0.097 0.218-0.171l0.191-0.609-0.906 0.316-0.282-0.81 0.25-0.769-0.495 0.173-0.265-0.76 0.974-0.339-0.159-0.456 0.94-0.328 0.159 0.456 0.968-0.337 0.265 0.76-1.339 0.467-0.261 0.88zM25.005 13.791l-0.306 1.060 0.357 0.336c0.081 0.077 0.169 0.099 0.263 0.066l0.242-0.084 0.265 0.76-0.371 0.129c-0.384 0.13-0.704 0.079-0.961-0.151l-0.076-0.074-0.081 0.293c-0.083 0.244-0.256 0.411-0.519 0.503l-0.844 0.294-0.4-0.713 0.619-0.216c0.122-0.047 0.2-0.103 0.231-0.169l0.552-1.675 1.030-0.359z"></path>
</svg>
