<!-- Generated by IcoMoon.io -->
<svg version="1.1" xmlns="http://www.w3.org/2000/svg" width="32" height="32" viewBox="0 0 32 32">
<title>danxuanyixuan</title>
<path d="M7.467 16c0 4.713 3.82 8.533 8.533 8.533s8.533-3.82 8.533-8.533v0c0-4.713-3.82-8.533-8.533-8.533s-8.533 3.82-8.533 8.533v0zM16 0c-8.747 0-16 7.253-16 16s7.253 16 16 16 16-7.253 16-16-7.253-16-16-16zM16 29.867c-7.68 0-13.867-6.187-13.867-13.867s6.187-13.867 13.867-13.867 13.867 6.187 13.867 13.867-6.187 13.867-13.867 13.867z"></path>
</svg>
