<!-- Generated by IcoMoon.io -->
<svg version="1.1" xmlns="http://www.w3.org/2000/svg" width="32" height="32" viewBox="0 0 32 32">
<title>dizhi</title>
<path d="M27.424 6.346l-0.017 0.017c-0.155-0.187-0.388-0.305-0.648-0.305-0.021 0-0.041 0.001-0.061 0.002h0.003c-0.475 0.004-0.858 0.39-0.858 0.865 0 0.004 0 0.007 0 0.011v-0.001l0.017 0.084c0.004 0.209 0.087 0.398 0.219 0.539v0c1.005 1.688 1.598 3.722 1.598 5.894 0 2.825-1.004 5.415-2.674 7.433l0.016-0.020h-0.017l-8.984 8.968-9.035-9.001c-1.627-1.989-2.614-4.557-2.614-7.356 0-6.438 5.219-11.658 11.658-11.658 2.126 0 4.119 0.569 5.834 1.563l-0.056-0.030c0.163 0.116 0.366 0.185 0.586 0.185 0.001 0 0.002 0 0.003 0v0c0.475-0.004 0.858-0.39 0.858-0.865 0-0.004 0-0.007 0-0.011v0.001l-0.017-0.084c-0.003-0.281-0.149-0.527-0.367-0.671l-0.003-0.002h-0.017c-0.024-0.020-0.052-0.036-0.082-0.050l-0.002-0.001c-1.948-1.165-4.296-1.854-6.806-1.854-7.41 0-13.418 6.007-13.418 13.418 0 3.233 1.143 6.198 3.047 8.515l-0.019-0.023h0.017c0.049 0.090 0.105 0.167 0.169 0.236l-0.001-0.001 9.624 9.59c0.164 0.164 0.39 0.265 0.639 0.265s0.476-0.101 0.639-0.265v0l9.624-9.59c0.065-0.073 0.121-0.156 0.165-0.246l0.003-0.006h0.034c1.855-2.285 2.978-5.229 2.978-8.435 0-2.634-0.758-5.092-2.068-7.166l0.033 0.055zM16.017 7.188c-3.459 0.010-6.259 2.816-6.259 6.276 0 3.466 2.81 6.276 6.276 6.276s6.276-2.81 6.276-6.276v0c-0.002-3.466-2.812-6.276-6.279-6.276-0.005 0-0.009 0-0.014 0h0.001zM16 17.922c-2.472 0-4.475-2.004-4.475-4.475s2.004-4.475 4.475-4.475c2.472 0 4.475 2.004 4.475 4.475v0c-0.001 2.471-2.004 4.474-4.475 4.475v0z"></path>
</svg>
