<!-- Generated by IcoMoon.io -->
<svg version="1.1" xmlns="http://www.w3.org/2000/svg" width="32" height="32" viewBox="0 0 32 32">
<title>duoxuanyixuan</title>
<path d="M31.064 0h-30.129c-0.374 0-0.936 0.374-0.936 0.936v30.129c0 0.561 0.374 0.936 0.936 0.936h30.129c0.561 0 0.936-0.374 0.936-0.936v-30.129c0-0.561-0.561-0.936-0.936-0.936zM25.45 11.228l-10.667 10.667c-0.187 0.187-0.561 0.374-0.749 0.374s-0.561-0.187-0.749-0.374l-6.737-6.363c-0.374-0.374-0.374-1.123 0-1.497s1.123-0.374 1.497 0l5.801 5.801 9.918-9.918c0.561-0.561 1.123-0.561 1.684-0.187 0.374 0.561 0.374 1.123 0 1.497z"></path>
</svg>
