<!-- Generated by IcoMoon.io -->
<svg version="1.1" xmlns="http://www.w3.org/2000/svg" width="32" height="32" viewBox="0 0 32 32">
<title>guanbi</title>
<path d="M17.414 16l14.293-14.292c0.391-0.391 0.391-1.023 0-1.414s-1.023-0.391-1.414 0l-14.293 14.292-14.293-14.292c-0.391-0.391-1.023-0.391-1.414 0s-0.391 1.023 0 1.414l14.293 14.292-14.293 14.292c-0.391 0.391-0.391 1.023 0 1.414 0.195 0.195 0.453 0.293 0.707 0.293 0.258 0 0.512-0.098 0.707-0.293l14.293-14.292 14.293 14.292c0.195 0.195 0.453 0.293 0.707 0.293 0.258 0 0.512-0.098 0.707-0.293 0.391-0.391 0.391-1.023 0-1.414l-14.293-14.292z"></path>
</svg>
