<!-- Generated by IcoMoon.io -->
<svg version="1.1" xmlns="http://www.w3.org/2000/svg" width="32" height="32" viewBox="0 0 32 32">
<title>icon-chakanxq</title>
<path d="M13.729 29.577h-7.818c-2.719 0-4.929-2.211-4.929-4.93v-19.718c0-2.719 2.211-4.93 4.929-4.93h17.677c2.719 0 4.93 2.211 4.93 4.93v9.859h-2.465v-9.859c0-1.358-1.104-2.465-2.465-2.465h-17.677c-1.358 0-2.465 1.107-2.465 2.465v19.718c0 1.361 1.107 2.465 2.465 2.465h7.818v2.465zM5.911 7.394h17.677v2.465h-17.677v-2.465zM31.019 30.257l-3.502-3.502c0.626-0.964 1.001-2.11 1.001-3.34 0-3.389-2.773-6.162-6.162-6.162s-6.162 2.773-6.162 6.162c0 3.389 2.773 6.162 6.162 6.162 1.272 0 2.455-0.389 3.441-1.057l3.48 3.48 1.742-1.743zM22.355 27.112c-2.038 0-3.697-1.659-3.697-3.697s1.659-3.697 3.697-3.697 3.697 1.659 3.697 3.697c0 2.038-1.659 3.697-3.697 3.697zM5.911 12.324h17.677v2.465h-17.677v-2.465zM5.911 17.253h7.818v2.465h-7.818v-2.465z"></path>
</svg>
