<!-- Generated by IcoMoon.io -->
<svg version="1.1" xmlns="http://www.w3.org/2000/svg" width="32" height="32" viewBox="0 0 32 32">
<title>icon</title>
<path d="M1.515 14.713c0.837 0 1.515 0.678 1.515 1.515s-0.678 1.515-1.515 1.515-1.515-0.678-1.515-1.515c0-0.837 0.678-1.515 1.515-1.515z"></path>
<path d="M7.498 14.713c0.837 0 1.515 0.678 1.515 1.515s-0.678 1.515-1.515 1.515-1.515-0.678-1.515-1.515c0-0.837 0.678-1.515 1.515-1.515z"></path>
<path d="M13.481 14.713c0.837 0 1.515 0.678 1.515 1.515s-0.678 1.515-1.515 1.515-1.515-0.678-1.515-1.515c0-0.837 0.678-1.515 1.515-1.515z"></path>
<path d="M19.464 14.713c0.837 0 1.515 0.678 1.515 1.515s-0.678 1.515-1.515 1.515-1.515-0.678-1.515-1.515c0-0.837 0.678-1.515 1.515-1.515z"></path>
<path d="M31.745 15.187l-9.435-9.435c-0.433-0.432-1.263-0.303-1.854 0.288s-0.721 1.422-0.288 1.854l8.105 8.105-8.105 8.105c-0.432 0.432-0.303 1.263 0.288 1.854s1.421 0.721 1.854 0.288l9.435-9.435c0.204-0.204 0.282-0.498 0.246-0.813 0.036-0.315-0.042-0.608-0.246-0.813z"></path>
</svg>
