<!-- Generated by IcoMoon.io -->
<svg version="1.1" xmlns="http://www.w3.org/2000/svg" width="32" height="32" viewBox="0 0 32 32">
<title>jiang</title>
<path d="M16.335 31.852c-0.078 0.090-0.192 0.146-0.32 0.148v0c-0.003 0-0.006 0-0.010 0-0.131 0-0.249-0.057-0.33-0.148v0l-7.62-9.364c-0.056-0.061-0.090-0.142-0.090-0.232s0.034-0.171 0.090-0.232v0c0.079-0.094 0.196-0.153 0.327-0.153 0.055 0 0.108 0.010 0.156 0.030l-0.003-0.001 5.44 2.1v-24h4v24l5.42-2h-0.16l0.24-0.096c0.044-0.017 0.096-0.026 0.149-0.026 0.132 0 0.251 0.059 0.331 0.152v0.001c0.050 0.059 0.080 0.135 0.080 0.219 0 0.004 0 0.008 0 0.012v-0.001c0 0.003 0 0.008 0 0.012 0 0.085-0.030 0.162-0.081 0.223v-0.001l-7.62 9.362z"></path>
</svg>
