<!-- Generated by IcoMoon.io -->
<svg version="1.1" xmlns="http://www.w3.org/2000/svg" width="32" height="32" viewBox="0 0 32 32">
<title>jiaoyanben</title>
<path d="M29.49 6.13v22.316c0 0.003 0 0.005 0 0.008 0 0.572-0.464 1.036-1.036 1.036-0.003 0-0.006 0-0.009 0h-22.669c-1.799-0.019-3.251-1.482-3.251-3.284 0-0.012 0-0.024 0-0.036v0.002c-0.006-0.075-0.010-0.162-0.010-0.25 0-1.571 1.172-2.869 2.689-3.066l0.016-0.002h20.665c0.69-0.007 1.246-0.567 1.246-1.258 0-0.002 0-0.004 0-0.005v0-20.328c0-0.007 0-0.015 0-0.023 0-0.339-0.135-0.646-0.354-0.87v0c-0.228-0.229-0.544-0.37-0.893-0.371h-18.307c-4.183 0.007-7.572 3.396-7.579 7.578v18.645c0.003 0.371 0.034 0.733 0.090 1.085l-0.005-0.041c0.343 2.596 2.479 4.599 5.107 4.732l0.013 0.001h23.242c1.963 0 3.554-1.591 3.554-3.554v0-22.316c0-0.693-0.562-1.255-1.255-1.255s-1.255 0.562-1.255 1.255v0zM7.579 2.526h17.044v17.802h-19.402c-1.008 0.005-1.941 0.32-2.711 0.853l0.016-0.010v-13.592c0-2.79 2.262-5.053 5.053-5.053v0z"></path>
</svg>
