<!-- Generated by IcoMoon.io -->
<svg version="1.1" xmlns="http://www.w3.org/2000/svg" width="32" height="32" viewBox="0 0 32 32">
<title>jiazai</title>
<path fill="#eaeaea" d="M16.004 0c0.873 0 1.573 0.704 1.573 1.573v4.849c0 0.873-0.704 1.573-1.573 1.573-0.873 0-1.573-0.704-1.573-1.573v-4.845c-0.008-0.873 0.7-1.577 1.573-1.577z"></path>
<path fill="#9b9b9b" d="M24.304 2.379c0.751 0.434 1.014 1.401 0.579 2.152l-2.426 4.199c-0.434 0.751-1.401 1.014-2.152 0.579s-1.014-1.401-0.579-2.152l2.426-4.195c0.438-0.755 1.401-1.017 2.152-0.583z"></path>
<path fill="#9d9b9b" d="M29.556 8.152c0.434 0.751 0.18 1.718-0.579 2.152l-4.195 2.426c-0.751 0.434-1.718 0.18-2.152-0.579-0.434-0.751-0.18-1.718 0.579-2.152l4.195-2.426c0.751-0.434 1.714-0.172 2.152 0.579z"></path>
<path fill="#a19f9f" d="M31.978 15.693c0 0.873-0.704 1.573-1.573 1.573h-4.845c-0.873 0-1.573-0.704-1.573-1.573 0-0.873 0.704-1.573 1.573-1.573h4.845c0.873-0.004 1.573 0.7 1.573 1.573z"></path>
<path fill="#a9a9a9" d="M29.556 23.844c-0.434 0.751-1.401 1.014-2.152 0.579l-4.195-2.426c-0.751-0.434-1.014-1.401-0.579-2.152s1.401-1.014 2.152-0.579l4.195 2.426c0.755 0.434 1.014 1.401 0.579 2.152z"></path>
<path fill="#b0b0b0" d="M24.304 30.231c-0.751 0.434-1.718 0.18-2.152-0.579l-2.426-4.195c-0.434-0.751-0.18-1.718 0.579-2.152 0.751-0.434 1.718-0.18 2.152 0.579l2.426 4.195c0.434 0.755 0.18 1.718-0.579 2.152z"></path>
<path fill="#b8b8b8" d="M16.004 32c-0.873 0-1.573-0.704-1.573-1.573v-4.849c0-0.873 0.704-1.573 1.573-1.573 0.873 0 1.573 0.704 1.573 1.573v4.849c0 0.865-0.704 1.573-1.573 1.573z"></path>
<path fill="#c1c0c0" d="M7.696 30.231c-0.751-0.434-1.014-1.401-0.579-2.152l2.426-4.195c0.434-0.751 1.401-1.014 2.152-0.579s1.014 1.401 0.579 2.152l-2.426 4.195c-0.434 0.755-1.397 1.014-2.152 0.579z"></path>
<path fill="#c9c8c8" d="M1.818 23.844c-0.434-0.751-0.18-1.718 0.579-2.152l4.195-2.426c0.751-0.434 1.718-0.18 2.152 0.579 0.434 0.751 0.18 1.718-0.579 2.152l-4.195 2.426c-0.751 0.434-1.718 0.176-2.152-0.579z"></path>
<path fill="#d3d3d3" d="M0.022 15.693c0-0.873 0.704-1.573 1.573-1.573h4.845c0.873 0 1.573 0.704 1.573 1.573 0 0.873-0.704 1.573-1.573 1.573h-4.845c-0.869 0-1.573-0.704-1.573-1.573z"></path>
<path fill="#dbdbdb" d="M1.818 8.152c0.434-0.751 1.401-1.014 2.152-0.579l4.195 2.426c0.751 0.434 1.014 1.401 0.579 2.152s-1.401 1.014-2.152 0.579l-4.195-2.426c-0.755-0.434-1.014-1.397-0.579-2.152z"></path>
<path fill="#e1e1e1" d="M7.696 2.379c0.751-0.434 1.718-0.18 2.152 0.579l2.426 4.195c0.434 0.751 0.18 1.718-0.579 2.152-0.751 0.434-1.718 0.18-2.152-0.579l-2.426-4.195c-0.434-0.751-0.172-1.714 0.579-2.152z"></path>
</svg>
