<!-- Generated by IcoMoon.io -->
<svg version="1.1" xmlns="http://www.w3.org/2000/svg" width="32" height="32" viewBox="0 0 32 32">
<title>jinggao1</title>
<path d="M28.015 30.818h-24.028c-1.611 0-2.906-0.632-3.552-1.733s-0.568-2.541 0.217-3.947l12.124-21.727c0.789-1.416 1.963-2.228 3.218-2.228s2.428 0.811 3.219 2.226l12.136 21.732c0.784 1.406 0.866 2.844 0.218 3.946-0.645 1.102-1.941 1.732-3.551 1.732v0zM15.994 3.463c-0.399 0-0.856 0.396-1.227 1.058l-12.124 21.729c-0.38 0.682-0.469 1.294-0.242 1.681s0.805 0.607 1.585 0.607h24.028c0.781 0 1.358-0.22 1.585-0.607 0.226-0.385 0.138-0.998-0.243-1.68l-12.136-21.73c-0.37-0.663-0.829-1.058-1.227-1.058v0zM16.001 20.529c-0.629 0-1.14-0.51-1.14-1.14v-10.264c0-0.63 0.511-1.14 1.14-1.14s1.14 0.511 1.14 1.14v10.264c0 0.631-0.511 1.14-1.14 1.14v0zM14.29 24.525c0-0.448 0.184-0.893 0.501-1.21s0.762-0.501 1.21-0.501c0.448 0 0.893 0.184 1.21 0.501s0.501 0.762 0.501 1.21zM17.711 24.329c0 0.448-0.184 0.893-0.501 1.21s-0.762 0.501-1.21 0.501c-0.448 0-0.893-0.184-1.21-0.501s-0.501-0.762-0.501-1.21z"></path>
</svg>
