<!-- Generated by IcoMoon.io -->
<svg version="1.1" xmlns="http://www.w3.org/2000/svg" width="32" height="32" viewBox="0 0 32 32">
<title>jinggao</title>
<path d="M0.473 27.175c-0.49 0.838-0.605 1.588-0.318 2.062 0.288 0.475 1.024 0.743 2.023 0.743h27.644c0.997 0 1.735-0.268 2.022-0.743s0.173-1.223-0.317-2.062l-13.937-23.853c-0.477-0.816-1.072-1.302-1.59-1.302s-1.115 0.486-1.592 1.302l-13.935 23.853zM17.354 27.737c-0.384 0.328-0.832 0.491-1.342 0.491-0.52 0-0.975-0.159-1.361-0.485-0.389-0.326-0.582-0.779-0.582-1.362 0-0.509 0.185-0.942 0.555-1.297 0.372-0.358 0.826-0.536 1.363-0.536s0.996 0.178 1.374 0.536c0.381 0.355 0.57 0.788 0.57 1.297 0 0.575-0.191 1.028-0.576 1.355v0zM16.088 9.589c0.735 0 1.224 0.244 1.472 0.734 0.246 0.488 0.37 1.191 0.37 2.11 0 0.543-0.030 1.092-0.091 1.651l-0.548 6.071c-0.061 0.721-0.189 1.273-0.385 1.66s-0.521 0.58-0.971 0.58c-0.462 0-0.781-0.185-0.959-0.559s-0.307-0.942-0.385-1.705l-0.409-5.901c-0.075-1.148-0.114-1.972-0.114-2.474 0-0.679 0.185-1.212 0.555-1.591 0.372-0.382 0.859-0.575 1.464-0.575v0z"></path>
</svg>
