<!-- Generated by IcoMoon.io -->
<svg version="1.1" xmlns="http://www.w3.org/2000/svg" width="32" height="32" viewBox="0 0 32 32">
<title>laoshifengcai</title>
<path d="M29.896 31.454l-0.285 0.546h-27.552l0.017-0.832c0.033-1.569 0.196-3.698 0.746-5.783 0.57-2.149 1.55-4.255 3.222-5.701l0.237-0.203 0.311 0.002 3.654-0.036-0.001 1.695-3.343-0.029c-1.253 1.195-2.022 2.912-2.489 4.682-0.424 1.593-0.601 3.224-0.668 4.573l24.514-0.005c0.043-1.541-0.408-3.363-0.962-5.073-0.557-1.723-1.355-3.191-2.313-4.207h-3.821v-1.637h4.367l0.336 0.11c1.278 1.195 2.318 3.14 2.995 5.236 0.71 2.194 1.241 4.772 1.035 6.662v0zM16.251 29.27l-2.183-1.637 1.413-5.672-0.535-0.877 0.042-0.897c1.021-0.056 1.319-0.056 2.34 0l0.042 0.897-0.535 0.877 1.599 5.672-2.183 1.637zM22.57 12.82c-0.561 1.932-1.324 3.378-2.347 4.449-1.103 1.157-2.487 1.849-4.22 2.212l-0.141 0.028-0.14-0.022c-1.565-0.262-2.949-0.925-4.099-2.093-1.055-1.070-1.898-2.559-2.485-4.541-0.493-0.266-0.862-0.709-1.112-1.304-0.275-0.654-0.403-1.508-0.386-2.52l0.006-0.391 0.329-0.22c0.11-0.076 0.222-0.142 0.333-0.201-0.501-3.038-0.371-5.627 1.475-7.352 1.468-1.065 4.046-0.337 6.409-0.689 6.737-1.007 6.692 2.397 7.364 8.166 0.039 0.024 0.079 0.048 0.118 0.076l0.329 0.22 0.006 0.391c0.016 0.992-0.105 1.831-0.369 2.481-0.24 0.59-0.596 1.037-1.070 1.311v0zM21.762 9.783l-0.103-0.343-0.219 0.014-0.126-0.658c-0.097-0.514-0.247-3.174-0.441-3.61-0.584 0.245-1.237-0.206-1.828-0.543l-0.3 0.93-0.482-0.063 0.064-0.567-0.509 0.809-0.453-0.089 0.445-1.201c-2.384 1.646-6.49 1.563-7.033 0.827-0.085 0.104-0.101 0.252-0.145 0.382-0.112 0.445-0.238 3.206-0.35 3.647l-0.030 0.162-0.011-0.002c-0.025 0.089-0.047 0.166-0.069 0.236-0.205-0.134-0.62-0.028-0.99 0.027 0.034 0.491 0.118 0.904 0.254 1.226 0.136 0.328 0.324 0.539 0.561 0.611l0.404 0.124 0.11 0.404c0.52 1.899 1.267 3.282 2.205 4.234 0.873 0.886 1.925 1.405 3.117 1.628 1.355-0.306 2.432-0.854 3.282-1.741 0.899-0.942 1.57-2.285 2.073-4.138l0.104-0.386 0.382-0.133c0.232-0.080 0.415-0.296 0.55-0.625 0.13-0.32 0.212-0.724 0.245-1.203-0.223 0.004-0.449 0.009-0.707 0.040v0z"></path>
</svg>
