<!-- Generated by IcoMoon.io -->
<svg version="1.1" xmlns="http://www.w3.org/2000/svg" width="32" height="32" viewBox="0 0 32 32">
<title>llhomesearch</title>
<path d="M31.563 29.065l-5.712-5.608c1.819-2.409 2.911-5.398 2.911-8.65 0-7.943-6.437-14.381-14.381-14.381s-14.381 6.439-14.381 14.381c0 7.944 6.438 14.382 14.381 14.382 3.66 0 6.991-1.379 9.529-3.63l5.72 5.615c0.562 0.552 1.45 0.529 1.984-0.053s0.511-1.504-0.051-2.057zM14.382 26.653c-6.541 0-11.844-5.303-11.844-11.844s5.302-11.844 11.844-11.844c6.541 0 11.844 5.303 11.844 11.844s-5.303 11.844-11.844 11.844z"></path>
</svg>
