<!-- Generated by IcoMoon.io -->
<svg version="1.1" xmlns="http://www.w3.org/2000/svg" width="34" height="32" viewBox="0 0 34 32">
<title>logo</title>
<path fill="#fff" d="M33.528 9.592l-15.592 8.785c-0.297 0.17-0.652 0.271-1.031 0.271s-0.734-0.1-1.041-0.276l0.010 0.005-15.589-8.785c-0.172-0.099-0.285-0.281-0.285-0.49 0-0.213 0.118-0.399 0.293-0.495l0.003-0.001 15.831-8.407c0.225-0.122 0.493-0.194 0.777-0.194s0.552 0.072 0.786 0.198l-0.009-0.004 15.835 8.407c0.178 0.097 0.296 0.283 0.296 0.496 0 0.209-0.114 0.391-0.282 0.489l-0.003 0.001zM21.56 8.549l-5.594-3.259c-0.088-0.052-0.194-0.082-0.308-0.082-0.34 0-0.615 0.275-0.615 0.615 0 0.002 0 0.004 0 0.006v-0 6.518c-0 0.002-0 0.004-0 0.006 0 0.34 0.275 0.615 0.615 0.615 0.113 0 0.219-0.031 0.311-0.084l-0.003 0.002 5.594-3.259c0.185-0.111 0.307-0.31 0.307-0.538s-0.122-0.427-0.304-0.537l-0.003-0.002zM3.439 14l1.173 0.658c0.206 0.117 0.342 0.335 0.342 0.585 0 0.001 0 0.002 0 0.003v-0 6.758l0.845-1.34c0.020-0.031 0.054-0.051 0.093-0.051 0.042 0 0.079 0.024 0.098 0.059l0 0.001 1.481 3.269 0.004-7.3c0.001-0.124 0.101-0.224 0.225-0.224 0.040 0 0.078 0.010 0.11 0.029l-0.001-0.001 8.009 4.53c0.313 0.18 0.688 0.286 1.088 0.286s0.775-0.106 1.099-0.292l-0.011 0.006 12.38-6.976c0.047-0.027 0.103-0.043 0.163-0.043 0.184 0 0.333 0.149 0.333 0.333 0 0.001 0 0.002-0 0.003v-0 1.744c0 0 0 0 0 0 0 0.167-0.091 0.313-0.226 0.392l-0.002 0.001-13.39 7.481c-0.208 0.117-0.345 0.337-0.346 0.588v0 1.232c0 0 0 0.001 0 0.001 0 0.093 0.075 0.168 0.168 0.168 0.030 0 0.059-0.008 0.083-0.022l-0.001 0 13.464-7.694c0.024-0.014 0.052-0.022 0.083-0.022 0.092 0 0.167 0.075 0.167 0.167 0 0.001 0 0.002-0 0.002v-0 1.109c0 0 0 0.001 0 0.001 0 0.144-0.077 0.27-0.193 0.338l-0.002 0.001-13.435 7.848c-0.201 0.12-0.334 0.336-0.334 0.583v1.155c0 0.001 0 0.001 0 0.002 0 0.092 0.074 0.166 0.166 0.166 0.031 0 0.060-0.009 0.085-0.023l-0.001 0 13.379-7.946c0.033-0.020 0.072-0.032 0.114-0.032 0.122 0 0.221 0.099 0.221 0.221 0 0.002-0 0.003-0 0.005v-0 1.738c0 0 0 0.001 0 0.001 0 0.326-0.174 0.611-0.433 0.768l-0.004 0.002-12.387 7.412c-0.324 0.197-0.716 0.314-1.135 0.314-0.421 0-0.815-0.118-1.15-0.323l0.010 0.006-12.016-7.228c-0.49-0.301-0.812-0.834-0.812-1.443 0-0.001 0-0.002 0-0.004v0-8.711c0-0 0-0.001 0-0.001 0-0.184 0.149-0.334 0.334-0.334 0.060 0 0.116 0.016 0.164 0.043l-0.002-0.001z"></path>
</svg>
