<!-- Generated by IcoMoon.io -->
<svg version="1.1" xmlns="http://www.w3.org/2000/svg" width="32" height="32" viewBox="0 0 32 32">
<title>pingfen</title>
<path d="M23.978 31.199c-0.001 0-0.003 0-0.005 0-0.517 0-1.004-0.129-1.431-0.356l0.016 0.008-6.558-3.454-6.558 3.454c-0.412 0.216-0.9 0.343-1.418 0.343-0.63 0-1.217-0.188-1.707-0.511l0.012 0.007c-0.767-0.515-1.265-1.379-1.265-2.359 0-0.162 0.014-0.32 0.040-0.474l-0.002 0.017 1.28-7.477-5.527-5.398c-0.527-0.505-0.855-1.215-0.855-2.001 0-0.331 0.058-0.648 0.164-0.942l-0.006 0.019c0.372-1.017 1.266-1.759 2.349-1.907l0.015-0.002 7.531-1.095 3.269-6.639c0.512-0.977 1.518-1.631 2.677-1.631s2.166 0.655 2.669 1.615l0.008 0.017 3.265 6.639 7.536 1.097c1.096 0.151 1.989 0.892 2.355 1.886l0.007 0.020c0.102 0.276 0.16 0.594 0.16 0.927 0 0.786-0.328 1.495-0.856 1.998l-0.001 0.001-5.524 5.398 1.28 7.477c0.023 0.136 0.036 0.292 0.036 0.452 0 0.98-0.497 1.845-1.254 2.354l-0.010 0.006c-0.474 0.32-1.059 0.512-1.688 0.512-0.002 0-0.004 0-0.006 0v0zM15.998 25.775c0.001 0 0.003 0 0.004 0 0.128 0 0.249 0.032 0.354 0.089l-0.004-0.002 6.915 3.642c0.205 0.107 0.448 0.17 0.706 0.17 0.314 0 0.607-0.093 0.851-0.254l-0.006 0.004c0.358-0.233 0.591-0.632 0.591-1.085 0-0.073-0.006-0.144-0.018-0.214l0.001 0.008-1.343-7.871c-0.007-0.040-0.012-0.085-0.012-0.132 0-0.212 0.088-0.404 0.229-0.541v0l5.812-5.677c0.243-0.23 0.394-0.555 0.394-0.915 0-0.148-0.026-0.29-0.073-0.422l0.003 0.009c-0.187-0.483-0.617-0.833-1.135-0.905l-0.007-0.001-7.934-1.156c-0.253-0.039-0.463-0.197-0.573-0.414l-0.002-0.004-3.446-7c-0.283-0.43-0.764-0.709-1.309-0.709s-1.026 0.28-1.306 0.704l-0.004 0.006-3.446 7c-0.111 0.222-0.321 0.38-0.57 0.417l-0.004 0.001-7.93 1.154c-0.527 0.071-0.957 0.422-1.142 0.896l-0.003 0.010c-0.044 0.123-0.069 0.264-0.069 0.412 0 0.361 0.152 0.687 0.395 0.917l0.001 0.001 5.812 5.677c0.141 0.138 0.229 0.331 0.229 0.544 0 0.045-0.004 0.090-0.012 0.133l0.001-0.005-1.347 7.871c-0.011 0.063-0.017 0.135-0.017 0.209 0 0.454 0.234 0.853 0.589 1.083l0.005 0.003c0.239 0.155 0.531 0.247 0.844 0.247 0.258 0 0.502-0.062 0.716-0.173l-0.009 0.004 6.913-3.642c0.101-0.055 0.222-0.087 0.35-0.087 0.002 0 0.003 0 0.005 0v0z"></path>
</svg>
