<!-- Generated by IcoMoon.io -->
<svg version="1.1" xmlns="http://www.w3.org/2000/svg" width="32" height="32" viewBox="0 0 32 32">
<title>prev</title>
<path d="M16 32c-8.823 0-16-7.177-16-16s7.177-16 16-16 16 7.177 16 16-7.177 16-16 16zM16 2.286c-7.562 0-13.714 6.152-13.714 13.714s6.152 13.714 13.714 13.714 13.714-6.152 13.714-13.714-6.152-13.714-13.714-13.714z"></path>
<path d="M8.085 16.441c0.001 0.005 0.007 0.009 0.009 0.014 0.055 0.129 0.13 0.253 0.235 0.359 0.001 0.001 0.002 0.001 0.003 0.002s0.001 0.002 0.002 0.003l5.675 5.691c0.446 0.447 1.168 0.449 1.616 0.002 0.447-0.446 0.448-1.168 0.002-1.616l-3.69-3.701h10.895c0.631 0 1.143-0.512 1.143-1.143s-0.512-1.143-1.143-1.143h-10.956l3.79-3.749c0.449-0.445 0.453-1.167 0.009-1.616-0.223-0.226-0.518-0.339-0.813-0.339-0.29 0-0.581 0.111-0.803 0.33l-5.723 5.661c-0.337 0.335-0.422 0.828-0.253 1.244z"></path>
</svg>
