<!-- Generated by IcoMoon.io -->
<svg version="1.1" xmlns="http://www.w3.org/2000/svg" width="32" height="32" viewBox="0 0 32 32">
<title>quxiao</title>
<path d="M16 0c-8.837 0-16 7.163-16 16s7.163 16 16 16 16-7.163 16-16c0-8.837-7.163-16-16-16zM22.703 23.812c-0.151 0.13-0.336 0.193-0.521 0.193-0.225 0-0.449-0.095-0.607-0.279l-5.665-6.588-5.613 6.629c-0.158 0.187-0.384 0.283-0.611 0.283-0.183 0-0.366-0.062-0.517-0.189-0.337-0.286-0.379-0.79-0.094-1.127l5.778-6.823-5.428-6.312c-0.288-0.335-0.25-0.84 0.085-1.128s0.841-0.25 1.128 0.085l5.262 6.119 5.216-6.16c0.285-0.338 0.791-0.379 1.127-0.094 0.337 0.286 0.379 0.79 0.094 1.128l-5.381 6.355 5.831 6.781c0.288 0.335 0.25 0.84-0.085 1.128z"></path>
</svg>
