<!-- Generated by IcoMoon.io -->
<svg version="1.1" xmlns="http://www.w3.org/2000/svg" width="32" height="32" viewBox="0 0 32 32">
<title>riqi1</title>
<path d="M17.452 14.565h-2.907v2.907h2.907v-2.907zM17.452 19.651h-2.907v2.905h2.907v-2.905zM29.074 2.945h-2.905v-2.179c0.001-0.011 0.001-0.025 0.001-0.038 0-0.402-0.326-0.727-0.727-0.727s-0.727 0.326-0.727 0.727c0 0.013 0 0.027 0.001 0.040v-0.002 2.177h-17.435v-2.175c0.001-0.011 0.001-0.025 0.001-0.038 0-0.402-0.326-0.727-0.727-0.727s-0.727 0.326-0.727 0.727c0 0.013 0 0.027 0.001 0.040v-0.002 2.177h-2.905c-1.608 0-2.907 1.302-2.907 2.907v23.244c0 1.606 1.3 2.905 2.907 2.905h26.149c1.608 0 2.907-1.3 2.907-2.907v-23.242c0-1.604-1.3-2.905-2.907-2.905zM30.527 29.093c0 0.802-0.65 1.452-1.452 1.452h-26.149c-0.001 0-0.001 0-0.002 0-0.802 0-1.452-0.65-1.452-1.452 0 0 0 0 0 0v0-17.433h29.055v17.433zM30.527 10.208h-29.055v-4.359c0-0.803 0.651-1.452 1.454-1.452h2.905v2.177c0 0.401 0.325 0.726 0.726 0.726s0.726-0.325 0.726-0.726v0-2.177h17.435v2.177c0 0.401 0.325 0.726 0.726 0.726s0.726-0.325 0.726-0.726v0-2.177h2.905c0.803 0 1.452 0.649 1.452 1.452v4.359zM24.718 19.651h-2.907v2.905h2.907v-2.905zM24.718 14.565h-2.907v2.907h2.907v-2.907zM17.452 24.737h-2.907v2.905h2.907v-2.905zM10.189 24.737h-2.907v2.905h2.907v-2.905zM10.189 14.565h-2.907v2.907h2.907v-2.907zM10.189 19.651h-2.907v2.905h2.907v-2.905z"></path>
</svg>
