<!-- Generated by IcoMoon.io -->
<svg version="1.1" xmlns="http://www.w3.org/2000/svg" width="32" height="32" viewBox="0 0 32 32">
<title>sheng</title>
<path d="M16.326 0.149c-0.078-0.090-0.192-0.146-0.32-0.148v0c-0.006 0-0.014-0.001-0.022-0.001-0.121 0-0.229 0.058-0.298 0.148l-0.001 0.001-7.64 9.364c-0.046 0.064-0.073 0.144-0.073 0.231s0.028 0.167 0.074 0.232l-0.001-0.001c0.079 0.093 0.196 0.152 0.327 0.152 0.055 0 0.107-0.010 0.156-0.029l-0.003 0.001 5.44-2.098v24h4v-24l5.42 2h-0.16l0.24 0.094c0.046 0.019 0.099 0.029 0.155 0.029 0.131 0 0.247-0.059 0.325-0.153l0.001-0.001c0.050-0.059 0.080-0.135 0.080-0.219 0-0.004 0-0.008 0-0.012v0.001c0-0.004 0-0.009 0-0.013 0-0.084-0.030-0.162-0.081-0.221v0.001l-7.62-9.362z"></path>
</svg>
