<!-- Generated by IcoMoon.io -->
<svg version="1.1" xmlns="http://www.w3.org/2000/svg" width="32" height="32" viewBox="0 0 32 32">
<title>shengyin</title>
<path d="M25.352 11.077c-0.551-0.882-1.212-1.543-1.543-1.874s-0.992-0.331-1.323 0.11c-0.331 0.331-0.331 0.992 0.11 1.323 0.11 0.11 0.22 0.22 0.331 0.331 0.331 0.331 0.661 0.772 0.882 1.213 1.984 2.976 1.984 6.173-1.323 9.59-0.331 0.331-0.331 0.992 0 1.323s0.992 0.331 1.323 0c3.858-4.189 3.858-8.377 1.543-12.015zM29.21 6.778c-0.551-0.882-1.212-1.653-1.874-2.425-0.331-0.441-0.661-0.661-0.882-0.882-0.331-0.331-0.992-0.331-1.323 0.11-0.331 0.331-0.331 0.992 0.11 1.323 0.11 0.11 0.441 0.331 0.772 0.772 0.551 0.661 1.102 1.323 1.653 2.205 3.638 5.511 3.638 11.574-2.425 17.857-0.331 0.331-0.331 0.992 0 1.323s0.992 0.331 1.323 0c6.724-7.055 6.724-14.109 2.645-20.282zM14.991 1.266l-7.496 6.393h-3.748c-1.984 0-3.748 1.653-3.748 3.748v9.369c0 2.094 1.653 3.748 3.748 3.748h3.307l7.936 6.283c1.874 1.433 3.638 0.551 3.638-1.764v-26.014c0-2.425-1.874-3.307-3.638-1.764zM16.755 28.934c0 0.772-0.11 0.772-0.661 0.331l-8.157-6.393c-0.11-0.11-0.331-0.22-0.551-0.22h-3.638c-0.992 0-1.874-0.882-1.874-1.874v-9.369c0-0.992 0.882-1.874 1.874-1.874h4.078c0.22 0 0.441-0.11 0.551-0.22l7.716-6.614c0.551-0.441 0.551-0.441 0.551 0.22v26.014z"></path>
</svg>
