<!-- Generated by IcoMoon.io -->
<svg version="1.1" xmlns="http://www.w3.org/2000/svg" width="32" height="32" viewBox="0 0 32 32">
<title>shenhe</title>
<path d="M27.525 23.353c-3.166 0-8.417-2.625-8.428-5.426 0-0.060 0.005-0.361 0.005-1.009 0-1.097 0-1.267 1.876-3.168 1.675-1.442 2.729-3.565 2.729-5.934 0-0.006 0-0.013 0-0.019v0.001c0-2.083-0.8-4.039-2.253-5.511-1.383-1.412-3.309-2.288-5.439-2.288-0.005 0-0.010 0-0.015 0h0.001c-0.004 0-0.009 0-0.014 0-2.13 0-4.056 0.875-5.438 2.286l-0.001 0.001c-1.393 1.407-2.253 3.344-2.253 5.481 0 0.010 0 0.021 0 0.031v-0.002c0 0.005 0 0.012 0 0.018 0 2.369 1.054 4.492 2.719 5.926l0.010 0.009c1.881 1.908 1.881 2.078 1.881 3.389v0.779c0 2.805-5.26 5.435-8.43 5.435-1.29 0.009-2.33 1.058-2.329 2.347v2.336c0 0.439 0.354 0.793 0.791 0.793h0.747v2.373c0 0.437 0.352 0.798 0.791 0.798h23.052c0.437 0 0.793-0.359 0.793-0.798v-2.373h0.745c0.21 0 0.412-0.084 0.561-0.232 0.143-0.144 0.232-0.342 0.232-0.561 0 0 0 0 0 0v0-2.336c0.001-1.291-1.041-2.34-2.331-2.347zM26.739 30.414h-21.473v-1.584h21.473v1.584zM28.272 27.246h-24.544v-1.545c0-0.421 0.333-0.761 0.745-0.761 1.858 0 4.327-0.763 6.29-1.938 2.4-1.442 3.724-3.246 3.724-5.083v-0.779c0-0.818-0.030-1.453-0.391-2.156-0.34-0.658-0.956-1.34-1.973-2.368l-0.051-0.046c-1.349-1.154-2.198-2.857-2.198-4.759 0-0.004 0-0.008 0-0.012v0.001c0-3.428 2.747-6.217 6.125-6.217 3.375 0 6.125 2.789 6.125 6.217 0 1.844-0.8 3.584-2.196 4.77l-0.053 0.044c-2.069 2.099-2.354 2.619-2.354 4.306 0 0.692-0.007 0.979-0.007 0.982v0.018c0 1.837 1.32 3.642 3.72 5.083 1.963 1.175 4.435 1.938 6.29 1.938 0.414 0 0.745 0.34 0.745 0.761v1.545h0.002z"></path>
</svg>
