<!-- Generated by IcoMoon.io -->
<svg version="1.1" xmlns="http://www.w3.org/2000/svg" width="32" height="32" viewBox="0 0 32 32">
<title>shu</title>
<path d="M31.961 5.887c0 0-1.811-1.505-3.662-2.297-2.014-0.965-4.861-0.921-4.861-0.921s-2.006-0.148-4.062 0.821c-2.056 0.969-3.573 2.286-3.573 2.286s-2.097-1.602-3.951-2.441-4.528-0.666-4.528-0.666-2.545 0.129-4.183 0.865-3.142 2.486-3.142 2.486v22.571c0 0 2.315-2.001 3.696-2.563s3.54-0.544 3.54-0.544 2.587 0.31 4.128 0.932c1.542 0.622 4.439 2.93 4.439 2.93s1.847-1.968 3.329-2.708c2.514-1.298 5.005-1.11 5.005-1.11s1.531 0.067 3.662 0.866c1.937 0.726 4.201 2.242 4.201 2.242l-0.039-22.749zM15.015 26.86c0 0-3.964-3.134-7.779-3.063-3.596 0.067-4.972 0.977-5.904 1.909 0.033-1.099-0.017-18.866-0.017-18.866s1.382-2.485 6.043-2.684c3.962-0.333 7.38 2.464 7.591 2.996 0.1 0.699 0.067 19.708 0.067 19.708zM30.496 26.128c-0.932-0.932-3.429-2.33-7.025-2.397-3.816-0.071-6.82 3.163-6.82 3.163s-0.033-19.009 0.067-19.708c0.333-0.533 2.93-3.196 7.591-2.996 4.040 0.176 6.239 2.623 6.239 2.623s-0.048 18.227-0.052 19.316z"></path>
</svg>
