<!-- Generated by IcoMoon.io -->
<svg version="1.1" xmlns="http://www.w3.org/2000/svg" width="32" height="32" viewBox="0 0 32 32">
<title>sousuo-2</title>
<path d="M30.833 29.723l-5.546-6.032c2.322-2.508 3.746-5.876 3.746-9.576 0-7.795-6.319-14.114-14.114-14.114s-14.114 6.319-14.114 14.114c0 7.795 6.319 14.114 14.114 14.114 0.013 0 0.025 0 0.038 0h-0.002c0 0 0 0 0.001 0 3.132 0 6.024-1.029 8.356-2.767l-0.037 0.026 5.584 6.078c0.246 0.268 0.597 0.435 0.988 0.435v0c0.002 0 0.004 0 0.006 0 0.351 0 0.67-0.137 0.907-0.361l-0.001 0.001c0.27-0.247 0.438-0.601 0.438-0.995 0-0.356-0.138-0.679-0.363-0.92l0.001 0.001zM3.482 13.968c0.051-6.292 5.163-11.373 11.462-11.373 6.331 0 11.463 5.132 11.463 11.463 0 6.327-5.126 11.457-11.452 11.463h-0.001c-6.343-0.031-11.472-5.18-11.472-11.527 0-0.009 0-0.017 0-0.026v0.001z"></path>
</svg>
