<!-- Generated by IcoMoon.io -->
<svg version="1.1" xmlns="http://www.w3.org/2000/svg" width="32" height="32" viewBox="0 0 32 32">
<title>time</title>
<path d="M27.317 4.685c-3.022-3.020-7.040-4.685-11.314-4.685-4.273 0-8.291 1.665-11.312 4.685-3.023 3.022-4.686 7.040-4.686 11.314-0.001 4.275 1.661 8.292 4.684 11.317 3.021 3.019 7.039 4.683 11.312 4.683 4.275 0 8.294-1.667 11.317-4.687 6.237-6.237 6.239-16.388 0-22.628v0 0zM25.843 25.838c-2.63 2.629-6.124 4.078-9.843 4.078-3.717 0-7.211-1.449-9.838-4.074-2.628-2.629-4.074-6.123-4.074-9.842s1.448-7.213 4.076-9.84 6.122-4.074 9.838-4.074c3.718 0 7.212 1.447 9.84 4.074 5.425 5.426 5.425 14.254 0 19.678v0 0zM22.917 19.921l-5.531-3.198v-8.723c0-0.736-0.597-1.333-1.333-1.333s-1.333 0.597-1.333 1.333v9.333c0 0.495 0.615 0.909 1.015 1.139 0.11 0.167 0.415 0.318 0.6 0.424l5.5 3.334c0.637 0.368 1.329 0.149 1.696-0.488 0.369-0.638 0.026-1.453-0.613-1.821v0 0z"></path>
</svg>
