<!-- Generated by IcoMoon.io -->
<svg version="1.1" xmlns="http://www.w3.org/2000/svg" width="32" height="32" viewBox="0 0 32 32">
<title>untitled1</title>
<path fill="#fff" d="M16 0c-8.837 0-16 7.163-16 16s7.163 16 16 16c8.837 0 16-7.163 16-16v0c0-8.837-7.163-16-16-16v0 0zM16.101 18.87h-0.39c-0.561-0.001-1.021-0.435-1.064-0.985l-0-0.004-0.8-10.662c-0.002-0.024-0.003-0.052-0.003-0.080 0-0.589 0.477-1.066 1.066-1.066 0.001 0 0.001 0 0.002 0h2.014c0 0 0 0 0 0 0.589 0 1.066 0.477 1.066 1.066 0 0.029-0.001 0.058-0.004 0.087l0-0.004-0.826 10.662c-0.043 0.552-0.502 0.984-1.061 0.984-0.001 0-0.001 0-0.002 0h0zM15.958 25.91h-0.045c-1.223 0-2.214-0.991-2.214-2.214 0-0.001 0-0.001 0-0.002v0-0.045c0-0.001 0-0.002 0-0.003 0-1.223 0.991-2.214 2.214-2.214 0 0 0 0 0 0h0.045c1.224 0 2.216 0.992 2.216 2.216 0 0.001 0 0.001 0 0.002v-0 0.045c-0.001 1.224-0.992 2.215-2.216 2.216h-0z"></path>
</svg>
