<!-- Generated by IcoMoon.io -->
<svg version="1.1" xmlns="http://www.w3.org/2000/svg" width="32" height="32" viewBox="0 0 32 32">
<title>wancheng</title>
<path d="M16.016 32c-8.789 0-16.003-7.208-16.003-15.997s7.214-16.003 16.003-16.003 16.003 7.214 16.003 16.003c-0.006 8.902-7.214 15.997-16.003 15.997zM16.016 2.026c-7.66 0-13.971 6.311-13.971 13.971s6.305 13.976 13.971 13.976 13.971-6.311 13.971-13.971-6.311-13.976-13.971-13.976zM13.984 22.427v0c-0.226 0-0.565-0.113-0.677-0.339l-5.408-5.408c-0.452-0.452-0.452-1.016 0-1.468s1.016-0.339 1.468 0l4.617 4.73 9.353-9.353c0.452-0.452 1.016-0.452 1.468 0s0.452 1.016 0 1.468l-10.144 10.144c-0.113 0.113-0.339 0.226-0.677 0.226z"></path>
</svg>
