<!-- Generated by IcoMoon.io -->
<svg version="1.1" xmlns="http://www.w3.org/2000/svg" width="32" height="32" viewBox="0 0 32 32">
<title>weibiaoti1</title>
<path d="M27.265 4.684c-3.009-3.019-7.006-4.684-11.263-4.684-4.254 0-8.252 1.665-11.259 4.686-3.009 3.023-4.663 7.041-4.663 11.315 0 4.277 1.654 8.292 4.661 11.315 3.005 3.021 7.006 4.684 11.259 4.684 4.256 0 8.258-1.665 11.265-4.684 6.206-6.239 6.206-16.39 0-22.633v0 0zM25.797 25.84c-2.616 2.628-6.097 4.078-9.797 4.078-3.698 0-7.176-1.448-9.791-4.074-2.614-2.628-4.054-6.123-4.054-9.843 0-3.718 1.44-7.215 4.056-9.841 2.614-2.628 6.091-4.074 9.791-4.074s7.178 1.446 9.795 4.074c5.398 5.427 5.398 14.256 0 19.68v0 0zM22.885 19.923l-5.504-3.199v-8.723c0-0.735-0.595-1.332-1.328-1.332-0.731 0-1.326 0.597-1.326 1.332v9.333c0 0.494 0.612 0.909 1.008 1.14 0.111 0.166 0.413 0.316 0.597 0.423l5.473 3.333c0.634 0.369 1.32 0.148 1.689-0.488 0.366-0.636 0.026-1.45-0.61-1.818v0 0z"></path>
</svg>
