<!-- Generated by IcoMoon.io -->
<svg version="1.1" xmlns="http://www.w3.org/2000/svg" width="32" height="32" viewBox="0 0 32 32">
<title>weizhi</title>
<path d="M27.399 6.323l-0.014 0.011c-0.17-0.194-0.426-0.314-0.71-0.305-0.491 0.016-0.875 0.411-0.859 0.884l0.011 0.079c0.007 0.207 0.090 0.394 0.222 0.538 1.021 1.732 1.607 3.751 1.607 5.907 0 2.817-1 5.401-2.664 7.416-0.003 0.003-0.006 0.005-0.008 0.008l-8.976 8.977-8.976-8.977c-0.013-0.013-0.026-0.025-0.039-0.037-1.65-2.011-2.641-4.583-2.641-7.387 0-6.436 5.217-11.653 11.653-11.653 2.105 0 4.079 0.558 5.783 1.534 0.16 0.123 0.364 0.194 0.585 0.187 0.491-0.016 0.875-0.411 0.859-0.884l-0.011-0.079c-0.010-0.277-0.155-0.519-0.373-0.668l0.001-0.001c-0.006-0.003-0.011-0.007-0.017-0.010-0.026-0.017-0.052-0.032-0.080-0.046-1.984-1.155-4.29-1.817-6.751-1.817-7.419 0-13.434 6.014-13.434 13.434 0 3.212 1.127 6.16 3.008 8.472h0.027c0.041 0.080 0.096 0.155 0.163 0.222l9.61 9.61c0.35 0.35 0.917 0.35 1.267 0l9.61-9.61c0.075-0.075 0.134-0.161 0.177-0.252h0.022c1.866-2.307 2.984-5.244 2.984-8.442 0-2.611-0.745-5.049-2.034-7.111zM16.004 7.157c-3.469 0-6.281 2.812-6.281 6.281s2.812 6.281 6.281 6.281c3.469 0 6.281-2.812 6.281-6.281s-2.812-6.281-6.281-6.281zM15.99 17.901c-2.473 0-4.478-2.005-4.478-4.477s2.005-4.477 4.478-4.477c2.473 0 4.477 2.005 4.477 4.477s-2.005 4.477-4.477 4.477z"></path>
</svg>
