<!-- Generated by IcoMoon.io -->
<svg version="1.1" xmlns="http://www.w3.org/2000/svg" width="32" height="32" viewBox="0 0 32 32">
<title>wushuju</title>
<path d="M7.692 9.508v10.299c0 0 0 0 0 0 0 0.367 0.297 0.664 0.664 0.664 0 0 0.001 0 0.001 0h15.619c0.001 0 0.002 0 0.002 0 0.366 0 0.663-0.297 0.663-0.663 0 0 0-0.001 0-0.001v0-10.299c0 0 0-0.001 0-0.001 0-0.366-0.297-0.662-0.662-0.662-0.001 0-0.002 0-0.003 0h-15.621c-0.001 0-0.002 0-0.002 0-0.366 0-0.662 0.297-0.662 0.662 0 0 0 0.001 0 0.001v0h0.001zM23.644 20.802v0.333c0 0.55-0.446 0.996-0.996 0.996-0.001 0-0.001 0-0.002 0h-15.619c-0.001 0-0.001 0-0.002 0-0.549 0-0.995-0.445-0.995-0.995 0 0 0 0 0-0.001v0-10.299c0 0 0-0.001 0-0.001 0-0.549 0.445-0.994 0.994-0.994 0.001 0 0.002 0 0.003 0h0.332v-0.333c0 0 0-0.001 0-0.001 0-0.549 0.445-0.994 0.994-0.994 0.001 0 0.003 0 0.004 0h15.619c0.001 0 0.001 0 0.002 0 0.549 0 0.995 0.445 0.995 0.995 0 0 0 0.001 0 0.001v0 10.299c0 0 0 0.001 0 0.001 0 0.549-0.445 0.994-0.994 0.994-0.001 0-0.002 0-0.003 0h-0.332zM23.644 20.802v-9.966c-0.001-0.55-0.447-0.996-0.997-0.996 0 0-0.001 0-0.001 0h-15.288v0.332h-0.332c-0.001 0-0.002 0-0.002 0-0.366 0-0.662 0.297-0.662 0.662 0 0 0 0.001 0 0.001v0 10.299c0 0 0 0 0 0 0 0.367 0.297 0.664 0.664 0.664 0 0 0.001 0 0.001 0h15.62c0.001 0 0.002 0 0.003 0 0.366 0 0.662-0.296 0.662-0.662 0-0.001 0-0.001 0-0.002v0-0.334h0.333zM23.311 20.802h-14.955c0 0-0.001 0-0.001 0-0.55 0-0.996-0.446-0.997-0.995v-9.633h15.288c0 0 0.001 0 0.001 0 0.367 0 0.664 0.297 0.664 0.664 0 0 0 0 0 0v0 9.965zM15.309 20.044l-1.135-0.908c-0.627 0.52-1.44 0.836-2.326 0.836-2.018 0-3.654-1.636-3.654-3.654s1.636-3.654 3.654-3.654c1.959 0 3.559 1.542 3.65 3.479v0.008h1.832v0.332h-1.832c-0.038 0.836-0.352 1.593-0.854 2.186l0.004-0.005 1.097 0.877 0.347-0.4 4.169 3.621-1.090 1.254-4.168-3.621 0.306-0.351zM15.164 16.153c-0.091-1.762-1.541-3.156-3.317-3.156-1.834 0-3.321 1.487-3.321 3.321s1.487 3.321 3.321 3.321c1.776 0 3.227-1.394 3.317-3.148v-0.008h-0.665c-0.090 1.394-1.243 2.491-2.652 2.491-1.468 0-2.657-1.19-2.657-2.657s1.19-2.657 2.657-2.657c1.409 0 2.562 1.097 2.652 2.483v0.008h0.665zM14.165 16.153c-0.089-1.211-1.093-2.159-2.319-2.159-1.284 0-2.325 1.041-2.325 2.325s1.041 2.325 2.325 2.325c1.226 0 2.23-0.948 2.319-2.151v-0.008h-2.818v-0.332h2.818zM11.347 15.488v-0.332h1.995v0.332h-1.995zM11.347 17.481v-0.332h1.995v0.332h-1.995zM15.497 16.153h-0.332c0.005 0.111 0.005 0.221 0 0.332h0.332q0.007-0.166 0-0.332zM14.5 16.153h-0.333c0.003 0.050 0.005 0.108 0.005 0.166s-0.002 0.116-0.006 0.174v-0.008h0.333c0.003-0.050 0.005-0.108 0.005-0.166s-0.002-0.116-0.006-0.174v0.008zM11.316 14.44c0.016-0.006 0.034-0.009 0.053-0.009 0.092 0 0.166 0.074 0.166 0.166 0 0.073-0.047 0.134-0.112 0.157h-0.001c-0.726 0.253-1.239 0.931-1.239 1.73 0 0 0 0 0 0v0c0 0.092-0.075 0.167-0.167 0.167s-0.167-0.075-0.167-0.167v0c0-0.944 0.606-1.746 1.45-2.040l0.015-0.005zM25.472 25.453c0.274-0.001 0.497-0.223 0.497-0.498s-0.223-0.498-0.498-0.498-0.498 0.223-0.498 0.498v0c0 0 0 0 0 0 0 0.275 0.223 0.498 0.498 0.498 0 0 0.001 0 0.001 0v0zM0.712 16.817h-0.712v0.332h0.712v0.731h0.332v-0.731h0.732v-0.332h-0.732v-0.712h-0.332v0.712zM30.789 12.333h-0.853v0.332h0.853v0.877h0.333v-0.877h0.878v-0.332h-0.878v-0.853h-0.333v0.853zM9.685 25.785h-0.997v0.332h0.997v1.024h0.333v-1.024h1.024v-0.332h-1.024v-0.997h-0.333v0.997zM25.472 25.785c-0.458 0-0.83-0.372-0.83-0.83s0.372-0.83 0.83-0.83 0.83 0.372 0.83 0.83c0 0 0 0 0 0.001v0c0 0 0 0 0 0 0 0.458-0.371 0.83-0.83 0.83 0 0-0.001 0-0.001 0v0zM15.834 6.52c-0.459 0-0.83-0.372-0.83-0.83s0.372-0.83 0.83-0.83 0.83 0.372 0.83 0.83c0 0 0 0 0 0v0c0 0.459-0.372 0.83-0.831 0.83 0 0 0 0 0 0v0zM15.834 6.188c0.274-0.001 0.497-0.223 0.497-0.498s-0.223-0.498-0.498-0.498-0.498 0.223-0.498 0.498v0c0 0 0 0 0 0 0 0.275 0.223 0.498 0.498 0.498 0 0 0.001 0 0.001 0v0zM28.795 17.482c0 0 0.001 0 0.002 0 0.061 0 0.115-0.033 0.144-0.082v-0.001c0.014-0.024 0.022-0.053 0.022-0.084s-0.008-0.060-0.023-0.084v0.001c-0.029-0.051-0.083-0.084-0.145-0.084-0.092 0-0.167 0.075-0.167 0.167s0.074 0.166 0.166 0.167v0zM28.795 17.813c-0.274-0.001-0.497-0.223-0.497-0.498s0.223-0.498 0.498-0.498 0.498 0.223 0.498 0.498v0c-0.001 0.275-0.224 0.498-0.499 0.498 0 0 0 0 0 0v0zM4.866 19.142c-0.274-0.001-0.497-0.223-0.497-0.498s0.223-0.498 0.498-0.498 0.498 0.223 0.498 0.498v0c-0.001 0.275-0.224 0.498-0.499 0.498 0 0 0 0 0 0v0zM2.042 13.495v-0.332h3.988v0.332h-3.988zM21.982 22.131v-0.332h4.986v0.332h-4.986zM27.964 22.131v-0.332h2.327v0.332h-2.327z"></path>
</svg>
