<!-- Generated by IcoMoon.io -->
<svg version="1.1" xmlns="http://www.w3.org/2000/svg" width="32" height="32" viewBox="0 0 32 32">
<title>xiangzuo</title>
<path d="M9.664 15.992c0.643 0.626 1.264 1.23 1.886 1.833 4.267 4.144 8.531 8.291 12.805 12.427 0.507 0.491 0.451 1.091 0.109 1.443-0.408 0.419-1.029 0.404-1.483-0.036-4.147-4.028-8.295-8.055-12.442-12.083-0.965-0.938-1.932-1.874-2.896-2.812-0.509-0.495-0.508-1.034 0.001-1.529 5.12-4.973 10.241-9.945 15.361-14.918 0.295-0.287 0.641-0.388 1.037-0.266 0.377 0.116 0.61 0.376 0.679 0.766 0.062 0.346-0.066 0.632-0.314 0.872-1.020 0.989-2.039 1.979-3.059 2.97-3.842 3.732-7.684 7.463-11.526 11.195-0.046 0.045-0.097 0.085-0.159 0.139z"></path>
</svg>
