<!-- Generated by IcoMoon.io -->
<svg version="1.1" xmlns="http://www.w3.org/2000/svg" width="32" height="32" viewBox="0 0 32 32">
<title>xing</title>
<path d="M31.927 12.282c-0.177-0.537-0.638-0.933-1.2-1.015l-0.008-0.001-9.246-1.346-4.138-8.378c-0.25-0.495-0.754-0.828-1.336-0.828s-1.086 0.333-1.332 0.819l-0.004 0.009-4.136 8.378-9.25 1.346c-0.57 0.083-1.029 0.479-1.203 1.005l-0.003 0.011c-0.046 0.137-0.072 0.295-0.072 0.459 0 0.419 0.171 0.798 0.448 1.071v0l6.696 6.522-1.574 9.208c-0.014 0.076-0.022 0.165-0.022 0.255 0 0.823 0.667 1.49 1.49 1.49 0.255 0 0.494-0.064 0.704-0.176l-0.008 0.004 8.272-4.35 8.272 4.35c0.2 0.105 0.436 0.167 0.688 0.167 0.827 0 1.498-0.671 1.498-1.498 0-0.085-0.007-0.169-0.021-0.25l0.001 0.009-1.578-9.208 6.696-6.522c0.271-0.273 0.439-0.65 0.439-1.065 0-0.166-0.027-0.326-0.076-0.475l0.003 0.011z"></path>
</svg>
