<!-- Generated by IcoMoon.io -->
<svg version="1.1" xmlns="http://www.w3.org/2000/svg" width="32" height="32" viewBox="0 0 32 32">
<title>xingxing</title>
<path d="M15.849 27.755l-6.958 3.781c-1.21 0.605-2.874 0.151-3.479-1.059-0.303-0.454-0.303-1.059-0.303-1.664l1.361-8.319-5.748-6.050c-0.605-0.756-0.907-1.664-0.605-2.571s1.059-1.664 2.118-1.664l8.016-1.21 3.479-7.411c0.605-1.21 2.117-1.815 3.328-1.21 0.605 0.302 1.059 0.756 1.21 1.21l3.479 7.411 8.016 1.21c0.907 0.151 1.815 0.756 2.117 1.664s0 1.966-0.605 2.571l-5.748 6.050 1.361 8.319c0.151 0.907-0.302 1.966-1.059 2.571s-1.815 0.605-2.723 0.151l-7.26-3.781z"></path>
</svg>
