<!-- Generated by IcoMoon.io -->
<svg version="1.1" xmlns="http://www.w3.org/2000/svg" width="32" height="32" viewBox="0 0 32 32">
<title>xuesheng</title>
<path d="M31.424 9.176l-15.152-5.088c-0.080-0.032-0.176-0.048-0.272-0.048s-0.192 0.016-0.272 0.048l-15.152 5.088c-0.336 0.112-0.576 0.432-0.576 0.8s0.24 0.688 0.576 0.8l4.4 1.504v6.912c0 0.24 0.096 0.448 0.256 0.608 0.144 0.144 3.728 3.648 10.784 3.648 2.576 0 4.96-0.464 7.12-1.376 0.432-0.176 0.64-0.592 0.448-1.024-0.176-0.432-0.688-0.544-1.104-0.368-1.952 0.832-4.128 1.232-6.464 1.232-3.296 0-5.728-0.848-7.184-1.568-1.072-0.528-2.016-1.248-2.368-1.52v-6.080l9.28 3.152c0.080 0.032 0.176 0.048 0.272 0.048s0.192-0.016 0.272-0.048l9.152-3.104v3.36c-0.992 0.352-1.792 1.376-1.792 2.48 0 1.040 0.608 1.92 1.504 2.32l-1.472 5.952c-0.016 0.064-0.032 0.128-0.032 0.208 0 0.192 0.064 0.384 0.176 0.528 0.16 0.192 0.4 0.32 0.672 0.32h3.392c0.272 0 0.512-0.128 0.672-0.32 0.112-0.144 0.176-0.32 0.176-0.528 0-0.080-0.016-0.144-0.032-0.208l-1.488-5.952c0.896-0.4 1.52-1.296 1.52-2.336 0-1.104-0.8-2.144-1.792-2.48v-3.84l4.48-1.584c0.352-0.112 0.576-0.4 0.576-0.768 0-0.384-0.224-0.656-0.576-0.768zM26.192 17.592c0.464 0 1.024 0.56 1.024 1.024s-0.56 1.024-1.024 1.024c-0.464 0-1.024-0.56-1.024-1.024s0.56-1.024 1.024-1.024zM25.408 26.424l0.784-2.992 0.784 2.992h-1.568zM26.208 10.968l-10.064-1.792c-0.464-0.080-0.896 0.112-0.976 0.576s0.24 0.768 0.704 0.848l7.92 1.312-7.824 2.432-13.072-4.368 13.104-4.464 13.152 4.448-2.944 1.008z"></path>
</svg>
