<!-- Generated by IcoMoon.io -->
<svg version="1.1" xmlns="http://www.w3.org/2000/svg" width="32" height="32" viewBox="0 0 32 32">
<title>xy</title>
<path d="M31.333 32h-30.667c-0.368 0-0.667-0.298-0.667-0.667s0.298-0.667 0.667-0.667v0h2.009v-28c0-1.473 1.194-2.667 2.667-2.667v0h13.333c1.473 0 2.667 1.194 2.667 2.667v0 2.667h5.333c1.473 0 2.667 1.194 2.667 2.667v0 22.667h1.991c0.368 0 0.667 0.298 0.667 0.667s-0.298 0.667-0.667 0.667v0zM20.009 2.667c-0.005-0.734-0.599-1.328-1.333-1.333h-13.334c-0.734 0.005-1.328 0.599-1.333 1.333v28h16v-28zM28.009 8c-0.005-0.734-0.599-1.328-1.333-1.333h-5.334v24h6.667v-22.667zM7.333 5.333h9.333c0.368 0 0.667 0.298 0.667 0.667s-0.298 0.667-0.667 0.667v0h-9.333c-0.368 0-0.667-0.298-0.667-0.667s0.298-0.667 0.667-0.667v0zM7.333 10.667h9.333c0.368 0 0.667 0.298 0.667 0.667s-0.298 0.667-0.667 0.667v0h-9.333c-0.368 0-0.667-0.298-0.667-0.667s0.298-0.667 0.667-0.667v0zM7.333 17.333h9.333c0.368 0 0.667 0.298 0.667 0.667s-0.298 0.667-0.667 0.667v0h-9.333c-0.368 0-0.667-0.298-0.667-0.667s0.298-0.667 0.667-0.667v0zM7.333 24h9.333c0.368 0 0.667 0.298 0.667 0.667s-0.298 0.667-0.667 0.667v0h-9.333c-0.368 0-0.667-0.298-0.667-0.667s0.298-0.667 0.667-0.667v0z"></path>
</svg>
