<!-- Generated by IcoMoon.io -->
<svg version="1.1" xmlns="http://www.w3.org/2000/svg" width="32" height="32" viewBox="0 0 32 32">
<title>yibiaoji</title>
<path d="M17.184 0.074h-17.184l32 31.851v-16.84l-14.816-15.011zM24.909 12.518l0.366 0.039c0.014 0.443 0.012 0.959-0.006 1.549l-0.405-0.043c0.023-0.395 0.038-0.91 0.045-1.545zM21.368 9.333l2.533 2.433-0.238 0.248-2.532-2.433 0.238-0.248zM14.77 10.722c-0.231-0.020-0.488-0.168-0.773-0.444l-2.445-2.348c-0.598-0.542-0.625-1.078-0.081-1.608l2.373-2.47 0.283 0.272-0.767 0.798 3.166 3.040 1.447-1.507-3.565-3.424 0.25-0.26 3.848 3.696-1.949 2.030-3.448-3.312-1.31 1.364c-0.217 0.222-0.319 0.415-0.307 0.58 0.005 0.165 0.127 0.361 0.365 0.586l2.312 2.221c0.025 0.027 0.052 0.055 0.080 0.081 0.379 0.364 0.764 0.394 1.155 0.090 0.176-0.117 0.404-0.282 0.684-0.497 0.060 0.151 0.119 0.267 0.177 0.347-0.28 0.221-0.503 0.384-0.665 0.487-0.324 0.213-0.6 0.305-0.829 0.277zM15.869 12.558l2.812-2.928c-0.612 0.377-1.321 0.678-2.075 0.866l-0.052 0.011c0.067-0.173 0.111-0.321 0.134-0.444 0.839-0.149 1.696-0.493 2.568-1.031l-0.708-0.68 0.238-0.248 0.708 0.68 0.993-1.034 0.266 0.255-0.993 1.034 0.64 0.615-0.238 0.248-0.641-0.615-0.808 0.841 0.256 0.019c0.016 0.387 0.018 0.793 0.007 1.214l-0.368-0.017c0.029-0.337 0.047-0.725 0.053-1.162l-2.526 2.63-0.266-0.255zM17.278 12.569c0.769-0.204 1.507-0.451 2.211-0.744l0.162 0.352c-0.535 0.222-1.286 0.486-2.050 0.721l-0.212 0.056c-0.031-0.15-0.070-0.279-0.117-0.404l0.006 0.018zM18.019 14.493l-0.26-0.24-0.298-0.286c0.063-0.083 0.138-0.199 0.222-0.346 0.18 0.193 0.358 0.372 0.531 0.539 0.136 0.135 0.255 0.199 0.355 0.191 0.1 0.003 0.214-0.064 0.344-0.203l1.998-2.079-1.359-1.306 0.235-0.245 3.013 2.894-0.235 0.245-1.384-1.329-2.048 2.132c-0.356 0.391-0.727 0.401-1.114 0.033zM20.237 15.68c0.191-0.466 0.446-1.193 0.677-1.931l0.071-0.26 0.353 0.113c-0.19 0.639-0.426 1.374-0.709 2.206l-0.392-0.127zM21.044 17.254l0.028-0.44c0.214-0.026 0.412-0.137 0.595-0.334l1.906-1.985-0.625-0.6 0.25-0.26 0.898 0.862-2.288 2.383c0.036 0.003 0.098 0.006 0.185 0.009 0.474 0.026 0.786 0.037 0.935 0.033-0.063 0.096-0.135 0.218-0.203 0.342l-0.015 0.030c-0.749-0.062-1.304-0.075-1.665-0.041zM27.174 18.49l-2.31-2.219-1.555 1.619c-0.184 0.189-0.268 0.357-0.25 0.506 0.008 0.145 0.121 0.321 0.34 0.527l1.026 0.986c0.221 0.216 0.403 0.337 0.544 0.364 0.141 0.036 0.313-0.006 0.515-0.126 0.3-0.19 0.558-0.377 0.803-0.577l-0.014 0.011c0.055 0.137 0.114 0.253 0.179 0.35-0.227 0.18-0.489 0.366-0.786 0.558-0.458 0.343-0.944 0.249-1.461-0.282l-1.106-1.062c-0.543-0.512-0.591-0.991-0.147-1.44l1.882-1.96 2.312 2.221 1.421-1.479-2.357-2.264 0.247-0.258 2.633 2.528-1.916 1.995z"></path>
</svg>
