<!-- Generated by IcoMoon.io -->
<svg version="1.1" xmlns="http://www.w3.org/2000/svg" width="32" height="32" viewBox="0 0 32 32">
<title>you</title>
<path d="M14.812 8.88l-1.132 1.131 5.989 5.988-5.989 5.988 1.132 1.131 7.119-7.12-7.12-7.12zM16.001 0c-8.837 0-16.001 7.162-16.001 15.999s7.164 16.001 16.001 16.001c8.836 0 15.999-7.163 15.999-16.001s-7.163-15.999-15.999-15.999zM16.001 30.4c-7.953 0-14.401-6.447-14.401-14.4s6.448-14.399 14.401-14.399c7.952 0 14.399 6.446 14.399 14.399s-6.447 14.4-14.399 14.4z"></path>
</svg>
