<!-- Generated by IcoMoon.io -->
<svg version="1.1" xmlns="http://www.w3.org/2000/svg" width="32" height="32" viewBox="0 0 32 32">
<title>zhuanye</title>
<path d="M8.295 6.813h-6.424c-0.373 0-0.675 0.302-0.675 0.675v0 23.421c0 0.373 0.302 0.675 0.675 0.675v0h6.424c0.373 0 0.675-0.302 0.675-0.675v0-23.422c0-0.373-0.302-0.675-0.675-0.675v0zM2.546 8.163h5.075v5.324h-5.075v-5.324zM2.546 30.234v-15.904h5.075v15.904h-5.075zM30.789 29.803l-5.022-22.878c-0.069-0.306-0.338-0.53-0.66-0.53-0.051 0-0.101 0.006-0.148 0.016l0.005-0.001-6.276 1.377c-0.306 0.069-0.53 0.338-0.53 0.659 0 0.051 0.006 0.101 0.016 0.149l-0.001-0.005 5.022 22.878c0.068 0.306 0.337 0.53 0.659 0.53 0.051 0 0.101-0.006 0.149-0.017l-0.005 0.001 6.275-1.377c0.305-0.069 0.53-0.338 0.53-0.66 0-0.051-0.006-0.101-0.016-0.148l0.001 0.005zM19.636 8.962l4.957-1.088 1.095 4.989-4.957 1.088-1.095-4.989zM24.369 30.522l-3.456-15.746 4.957-1.088 3.456 15.747-4.957 1.088zM17.004 0h-6.424c-0.373 0-0.675 0.302-0.675 0.675v0 30.233c0 0 0 0 0 0 0 0.373 0.302 0.675 0.675 0.675h6.425c0.373 0 0.675-0.302 0.675-0.675v-30.233c0 0 0 0 0 0 0-0.373-0.302-0.675-0.675-0.675 0 0 0 0 0 0v0zM11.254 1.35h5.075v5.716h-5.075v-5.716zM11.254 30.234v-22.325h5.075v22.325h-5.075z"></path>
</svg>
