<!-- Generated by IcoMoon.io -->
<svg version="1.1" xmlns="http://www.w3.org/2000/svg" width="32" height="32" viewBox="0 0 32 32">
<title>zuo</title>
<path d="M15.999 0c-8.836 0-15.999 7.164-15.999 16.001s7.163 15.999 15.999 15.999c8.837 0 16.001-7.162 16.001-15.999s-7.164-16.001-16.001-16.001zM15.999 30.4c-7.952 0-14.399-6.446-14.399-14.399s6.447-14.401 14.399-14.401c7.953 0 14.401 6.447 14.401 14.401s-6.448 14.399-14.401 14.399zM17.188 8.881l-7.119 7.119 7.119 7.119 1.132-1.131-5.988-5.988 5.988-5.989-1.132-1.131z"></path>
</svg>
